<?xml version="1.0" encoding="UTF-8"?>
<svg version="1.1" xmlns="http://www.w3.org/2000/svg" width="512" height="512">
<path d="M0 0 C129.36 0 258.72 0 392 0 C392 92.73 392 185.46 392 281 C352.4 281 312.8 281 272 281 C272 300.8 272 320.6 272 341 C261.77 341 251.54 341 241 341 C241 387.53 241 434.06 241 482 C260.14 482 279.28 482 299 482 C299 491.9 299 501.8 299 512 C231.02 512 163.04 512 93 512 C93 502.1 93 492.2 93 482 C112.14 482 131.28 482 151 482 C151 435.47 151 388.94 151 341 C140.77 341 130.54 341 120 341 C120 321.2 120 301.4 120 281 C80.4 281 40.8 281 0 281 C0 188.27 0 95.54 0 0 Z M30 30 C30 102.93 30 175.86 30 251 C139.56 251 249.12 251 362 251 C362 178.07 362 105.14 362 30 C252.44 30 142.88 30 30 30 Z M151 281 C151 290.9 151 300.8 151 311 C180.7 311 210.4 311 241 311 C241 301.1 241 291.2 241 281 C211.3 281 181.6 281 151 281 Z M181 341 C181 387.53 181 434.06 181 482 C190.9 482 200.8 482 211 482 C211 435.47 211 388.94 211 341 C201.1 341 191.2 341 181 341 Z " fill="#000000" transform="translate(60,0)"/>
<path d="M0 0 C89.76 0 179.52 0 272 0 C272 53.13 272 106.26 272 161 C182.24 161 92.48 161 0 161 C0 107.87 0 54.74 0 0 Z M30 30 C30 63.33 30 96.66 30 131 C60.03 131 90.06 131 121 131 C121 97.67 121 64.34 121 30 C90.97 30 60.94 30 30 30 Z M151 30 C151 63.33 151 96.66 151 131 C181.03 131 211.06 131 242 131 C242 97.67 242 64.34 242 30 C211.97 30 181.94 30 151 30 Z " fill="#000000" transform="translate(120,60)"/>
</svg>
